Coordinates
version=1
nRows=14
nColumns=36
inDegrees=yes

Units are S.I. units (second, meters, Newtons, ...)
If the header above contains a line with 'inDegrees', this indicates whether rotational values are in degrees (yes) or radians (no).

endheader
time	pelvis_tilt	pelvis_list	pelvis_rotation	pelvis_tx	pelvis_ty	pelvis_tz	hip_flexion_r	hip_adduction_r	hip_rotation_r	knee_angle_r	knee_angle_r_beta	ankle_angle_r	subtalar_angle_r	mtp_angle_r	hip_flexion_l	hip_adduction_l	hip_rotation_l	knee_angle_l	knee_angle_l_beta	ankle_angle_l	subtalar_angle_l	mtp_angle_l	lumbar_extension	lumbar_bending	lumbar_rotation	arm_flex_r	arm_add_r	arm_rot_r	elbow_flex_r	pro_sup_r	arm_flex_l	arm_add_l	arm_rot_l	elbow_flex_l	pro_sup_l
      2.21666670	     -3.90652667	     -0.58416311	     -5.03959592	     -0.34072563	      1.27658763	     -0.06731924	      1.26273413	      0.57056316	     -6.83997198	     11.70508388	      0.20429225	     12.92989526	    -12.89677998	     -7.49999987	     -0.57305624	     -0.84092228	    -13.39973822	     10.53276429	      0.18383142	     15.45760750	     -5.48589136	     -7.49999987	     -7.03486967	      0.82385413	      4.39311174	      5.52888075	     -7.65554942	     18.55292066	     20.48551644	     79.73327655	      0.61300315	    -10.30157211	     18.23577150	     32.17922438	     91.68790102
      2.23333330	     -3.83167155	     -0.57143558	     -5.10082836	     -0.34018894	      1.27486006	     -0.06732761	      1.12503820	      0.54898117	     -6.82090416	     11.56381687	      0.20182668	     12.75106988	    -12.96374051	     -7.49999987	     -0.73481561	     -0.80724527	    -13.50499802	     10.41829850	      0.18183361	     15.05937947	     -5.87456246	     -7.49999987	     -7.23841792	      0.82599389	      4.44909522	      5.60516471	     -7.61375908	     18.51156390	     20.44161949	     77.80394057	      0.67198473	    -10.30484755	     18.41582734	     32.45831323	     89.20042528
      2.25000000	     -3.85065845	     -0.58448371	     -5.22535554	     -0.34058215	      1.27464175	     -0.06726364	      1.27060950	      0.52585739	     -6.81087061	     11.68250902	      0.20389825	     12.96512593	    -12.87385744	     -7.49999987	     -0.78538831	     -0.79011478	    -13.58749982	     10.36414120	      0.18088839	     15.02050963	     -5.87829888	     -7.49999987	     -7.20816289	      0.85027726	      4.58785393	      5.62403467	     -7.63784199	     18.72664039	     20.30255888	     77.54624489	      0.77569415	    -10.27994920	     18.79133194	     32.46000862	     88.87546462
      2.26666670	     -3.93427450	     -0.58752804	     -5.26740079	     -0.34670170	      1.27486161	     -0.07035730	      1.43491681	      0.50634745	     -6.83338434	     11.59180063	      0.20231509	     13.02651291	    -12.90725879	     -7.49999987	     -0.62203190	     -0.73635127	    -13.60557435	     10.24692228	      0.17884253	     15.04181939	     -5.86624931	     -7.49999987	     -7.25942023	      0.92831329	      4.56115959	      5.82592475	     -7.71478689	     18.72530380	     20.33223416	     77.55887512	      1.00748600	    -10.19363786	     18.80700233	     32.54572787	     88.90022159
      2.28333330	     -3.99192301	     -0.61486638	     -5.26411613	     -0.34059661	      1.27491453	     -0.06743471	      1.49385380	      0.55418300	     -6.79396805	     11.52121113	      0.20108307	     13.02902351	    -12.89710356	     -7.49999987	     -0.58605369	     -0.73918401	    -13.60084411	     10.13035725	      0.17680809	     14.98068130	     -5.81494792	     -7.49999987	     -7.29886858	      0.95661000	      4.52285045	      5.86264748	     -7.73786062	     18.74277488	     20.32347893	     77.57822066	      1.12845591	    -10.16427689	     18.83820434	     32.59874930	     88.93455514
      2.30000000	     -3.87665042	     -0.63972779	     -5.42671030	     -0.34011394	      1.27551655	     -0.06732597	      1.22256628	      0.58813238	     -6.59271005	     11.22677223	      0.19594414	     13.07793951	    -12.97003372	     -7.49999987	     -0.96079220	     -0.66716578	    -13.72189719	      9.64091331	      0.16826568	     14.89454822	     -5.60848404	     -7.49999987	     -7.40261008	      1.01218352	      4.71483787	      5.89346928	     -7.79009654	     19.02926499	     20.12595555	     76.69226194	      1.10813466	    -10.16695913	     19.17797898	     32.81966462	     88.07037806
      2.31666670	     -3.88096535	     -0.63087350	     -5.46473504	     -0.34044334	      1.27520691	     -0.06728161	      1.08494512	      0.61438293	     -6.55418794	     10.99155453	      0.19183882	     13.10393859	    -12.88457501	     -7.49999987	     -0.97462567	     -0.65952192	    -13.71738210	      9.57841416	      0.16717486	     14.78252268	     -5.73143443	     -7.49999987	     -7.27242876	      0.99355493	      4.86058151	      5.75456325	     -7.91193826	     19.94682026	     20.12607482	     77.42583799	      1.32374714	    -10.28106841	     20.23766084	     32.59337099	     89.83384401
      2.33333330	     -3.82316880	     -0.58387942	     -5.42904709	     -0.34003674	      1.27556851	     -0.06733394	      0.86935114	      0.58485941	     -6.50592565	     10.70548852	      0.18684602	     13.06364170	    -12.92588583	     -7.49999987	     -1.14180080	     -0.58782294	    -13.61934709	      9.43285164	      0.16463432	     14.67558362	     -5.72199311	     -7.49999987	     -7.29930479	      0.95298800	      4.71619595	      5.67068554	     -7.81211493	     19.63326085	     20.22765547	     76.32811602	      1.12803477	    -10.27171891	     19.87804443	     32.89684175	     88.51443172
      2.35000000	     -3.77019280	     -0.56604650	     -5.36327533	     -0.34041224	      1.27536148	     -0.06741648	      0.64270126	      0.58486506	     -6.63672783	     10.46429700	      0.18263644	     13.11614556	    -12.61665826	     -7.49999987	     -1.24625771	     -0.57922707	    -13.73363424	      9.37534721	      0.16363068	     14.73897727	     -5.53371200	     -7.49999987	     -7.29767763	      0.93063627	      4.67123879	      5.54318266	     -7.78024154	     19.44140255	     20.33144180	     76.42542078	      1.16149934	    -10.27362971	     19.86426793	     32.85851120	     88.99762367
      2.36666670	     -3.83429322	     -0.50669601	     -5.39906108	     -0.33995459	      1.27543890	     -0.06735676	      0.63599799	      0.53992930	     -6.60022038	     10.30287702	      0.17981913	     13.05366965	    -12.63563199	     -7.49999987	     -1.27918802	     -0.49721154	    -13.73861381	      9.25379205	      0.16150914	     14.57736318	     -5.48279313	     -7.49999987	     -7.13821388	      0.85308292	      4.57964089	      5.43345720	     -7.70184200	     19.28109471	     20.44430001	     75.63039496	      0.97401525	    -10.38152095	     19.76995546	     33.27979987	     88.05300934
      2.38333330	     -3.66813549	     -0.51737080	     -5.39578994	     -0.34051033	      1.27827901	     -0.06747702	      0.31816811	      0.55911076	     -6.49424017	     10.09040103	      0.17611072	     12.88304713	    -12.76409983	     -7.49999987	     -1.54604615	     -0.48025494	    -13.69588179	      9.12505833	      0.15926231	     14.40453132	     -5.46933679	     -7.49999987	     -7.42624971	      0.86548168	      4.41814518	      5.60924265	     -7.60122844	     19.19740030	     20.25514458	     75.08483290	      1.08808821	    -10.37507998	     19.83036931	     33.14754899	     87.57874054
      2.40000000	     -3.68379090	     -0.45610625	     -5.36350260	     -0.34004403	      1.27767768	     -0.06731943	      0.35669484	      0.47098898	     -6.52300387	     10.32110579	      0.18013728	     13.07723886	    -12.52269139	     -7.49999987	     -1.49991227	     -0.44213165	    -13.70864795	      9.22156077	      0.16094660	     14.44276993	     -5.27691427	     -7.49999987	     -7.43842492	      0.84261909	      4.40285118	      5.43107670	     -7.48169220	     17.41984945	     20.42655268	     80.18727906	      1.13886279	    -10.37231921	     19.15421156	     33.08247286	     93.76364059
      2.41666670	     -3.69395112	     -0.39326924	     -5.31406068	     -0.34033063	      1.27506949	     -0.06748637	      0.44161646	      0.37034413	     -6.54952626	     10.69055388	      0.18658536	     13.27377680	    -12.38434950	     -7.49999987	     -1.38929133	     -0.42594470	    -13.65805133	      9.48069946	      0.16546942	     14.46778002	     -5.21466522	     -7.49999987	     -7.45817972	      0.78605267	      4.27849800	      5.43050139	     -7.41066143	     17.45234565	     20.45339863	     78.97549844	      1.20330273	    -10.44755929	     19.61205817	     33.01587112	     92.07881341
      2.43333330	     -3.61735750	     -0.38629217	     -5.20500072	     -0.33997074	      1.27538000	     -0.06757203	      0.37915926	      0.31646663	     -6.50842013	     11.03918962	      0.19267021	     13.33991747	    -12.32196346	     -7.49999987	     -1.42382703	     -0.44847342	    -13.66512971	      9.67724261	      0.16889975	     14.43354056	     -5.07193972	     -7.49999987	     -7.51460018	      0.79903123	      4.15461198	      5.41126072	     -7.37068166	     17.40196568	     20.51815234	     77.85321298	      1.21941940	    -10.47316864	     19.80165134	     33.05278965	     90.73596881
